<svg width="108" height="108" viewBox="0 0 108 108" fill="none" xmlns="http://www.w3.org/2000/svg">
<path d="M53.9152 18C41.2108 18 30.8752 28.3481 30.8752 41.0678C30.8752 60.0193 51.6219 78.5238 52.5054 79.3025C52.9082 79.6575 53.4116 79.8353 53.9152 79.8353C54.4189 79.8353 54.9223 79.6577 55.3253 79.3025C56.2084 78.5241 76.9552 60.0195 76.9552 41.0678C76.9552 28.3481 66.6197 18 53.9152 18ZM53.9152 34.592C57.4443 34.592 60.3153 37.497 60.3153 41.0678C60.3153 44.6386 57.4443 47.5436 53.9152 47.5436C50.3862 47.5436 47.5152 44.6386 47.5152 41.0678C47.5152 37.497 50.3862 34.592 53.9152 34.592Z" fill="#424940"/>
<path d="M66.3252 74.0773C73.692 75.5527 78.6489 78.3077 78.6494 81.4659C78.6494 86.1789 67.6135 90.0001 54 90.0001C40.3865 90.0001 29.3506 86.1789 29.3506 81.4659C29.3511 78.3455 34.1898 75.617 41.4111 74.129C46.7402 79.6305 51.8901 83.3109 52.335 83.6251C52.7657 83.9294 53.3041 84.0821 53.8428 84.0822C54.3815 84.0822 54.9205 83.9295 55.3516 83.6251C55.7996 83.3086 60.9796 79.6063 66.3252 74.0773Z" fill="#424940"/>
</svg>
